<svg width="408" height="358" viewBox="0 0 408 358" fill="none" xmlns="http://www.w3.org/2000/svg">
<rect x="106" y="16" width="147" height="35" rx="17.5" fill="#3092EC"/>
<rect x="243" y="64" width="147" height="35" rx="17.5" fill="#3092EC"/>
<rect x="50" y="112" width="147" height="35" rx="17.5" fill="#FCB248"/>
<rect x="267" y="16" width="59" height="35" rx="17.5" fill="#FCB248"/>
<rect x="64" y="64" width="42" height="35" rx="17.5" fill="#C50000" fill-opacity="0.87"/>
<rect x="124" y="64" width="93" height="35" rx="17.5" fill="#F15B28"/>
<rect x="211" y="292.089" width="147" height="35" rx="17.5" transform="rotate(180 211 292.089)" fill="#3092EC"/>
<rect x="377" y="292" width="42" height="35" rx="17.5" transform="rotate(180 377 292)" fill="#C50000" fill-opacity="0.87"/>
<rect x="316.98" y="292" width="93" height="35" rx="17.5" transform="rotate(180 316.98 292)" fill="#F15B28"/>
<rect x="18" y="160" width="42" height="35" rx="17.5" fill="#C50000" fill-opacity="0.87"/>
<rect x="78" y="160" width="93" height="35" rx="17.5" fill="#F15B28"/>
<rect x="202.992" y="243" width="42" height="35" rx="17.5" transform="rotate(180 202.992 243)" fill="#FCB248"/>
<rect x="143" y="244.197" width="93" height="35" rx="17.5" transform="rotate(180 143 244.197)" fill="#F15B28"/>
<rect x="326" y="341" width="165" height="35" rx="17.5" transform="rotate(180 326 341)" fill="#3092EC"/>
<rect x="143" y="342" width="37" height="35" rx="17.5" transform="rotate(180 143 342)" fill="#FCB248"/>
</svg>
